<?xml version="1.0" encoding="utf-8"?>
<!-- Generator: Adobe Illustrator 16.0.0, SVG Export Plug-In . SVG Version: 6.00 Build 0)  -->
<!DOCTYPE svg PUBLIC "-//W3C//DTD SVG 1.1//EN" "http://www.w3.org/Graphics/SVG/1.1/DTD/svg11.dtd">
<svg version="1.1" id="Warstwa_1" xmlns="http://www.w3.org/2000/svg" xmlns:xlink="http://www.w3.org/1999/xlink" x="0px" y="0px"
	 width="163.333px" height="75px" viewBox="0 0 163.333 75" enable-background="new 0 0 163.333 75" xml:space="preserve">
<g>
	<path fill="#0B0204" d="M75.028,30.393c-0.174-0.08-0.457-0.201-1.05-0.201c-1.898,0-3.312,1.359-3.312,3.285
		c0,1.912,1.212,2.926,2.585,2.926c0.593,0,1.244-0.311,1.777-0.715l0.528,0.732l0.507-0.105c0-5.963,0.003-4.867,0.003-9.57
		l-1.039,0.262V30.393L75.028,30.393z M57.09,47.166l-0.348,0.354c0.63,0.502,1.352,0.742,2.138,0.742
		c1.219,0,2.75-0.326,2.75-2.008c0-2.447-3.822-1.799-3.822-3.709c0-0.832,0.863-1.223,1.5-1.223c0.437,0,0.945,0.137,1.366,0.344
		l0.373-0.381c-0.469-0.303-1.285-0.48-1.74-0.48h-0.01c-1.084,0-2.426,0.574-2.426,1.994c0,2.377,3.781,1.904,3.734,3.727
		c-0.023,0.873-1.099,1.174-1.737,1.174C58.277,47.699,57.635,47.51,57.09,47.166L57.09,47.166z M71.325,47.443h2.546l-0.349,0.645
		l-3.393,0.004l-0.102-0.186l0.261-0.395l2.291-3.623h-2.328l0.289-0.574h3.015v0.506C72.803,45.037,71.928,46.236,71.325,47.443
		L71.325,47.443z M63.223,47.443h2.546l-0.349,0.645l-3.393,0.004l-0.102-0.186l0.261-0.395l2.291-3.623h-2.328l0.29-0.574h3.014
		v0.506C64.701,45.037,63.825,46.236,63.223,47.443L63.223,47.443z M91.946,47.941v-1.945v-0.629l-0.005-2.074l-0.811,0.223v2.48
		v2.072h0.816V47.941L91.946,47.941z M91.609,41.146c-0.231,0-0.531,0.178-0.531,0.555c0,0.32,0.21,0.518,0.495,0.518
		c0.321,0,0.521-0.254,0.521-0.551c0-0.277-0.178-0.521-0.475-0.521H91.609L91.609,41.146z M89.74,44.727
		c-0.078-0.887-0.478-1.547-1.53-1.547c-0.566,0-1.112,0.35-1.499,0.732c-0.006,0.008-0.023,0.027-0.041,0.049l-0.004-0.008
		l-0.406-0.645l-0.424,0.084v0.203c0,0.301,0,0.68,0,0.979v0.027l0,0.002c0-0.016,0-0.018,0,0.004l-0.003,0.008
		c0,0.092,0,0.186,0,0.277v3.176h0.007h0.848h0.011v-3.537l0.001-0.018l0.014-0.018c0.24-0.305,0.624-0.652,1.195-0.658
		c0.685-0.006,0.978,0.551,0.979,1.121l0.005,3.109h0.847v-1.43V44.727L89.74,44.727z M84.361,47.941v-1.945v-0.629l-0.005-2.074
		l-0.811,0.223v2.48v2.072h0.815V47.941L84.361,47.941z M84.023,41.146c-0.231,0-0.53,0.178-0.53,0.555
		c0,0.32,0.209,0.518,0.494,0.518c0.321,0,0.521-0.254,0.521-0.551c0-0.277-0.177-0.521-0.476-0.521H84.023L84.023,41.146z
		 M75.148,45.625h0.038c0.694,0,1.487,0.014,2.182-0.008l0.818-0.369c0.02-0.088,0.031-0.227,0.031-0.336
		c-0.019-0.84-0.61-1.73-1.781-1.748c-1.381-0.021-2.125,1.252-2.163,2.459l0,0.012l-0.003,0.088c0,1.924,1.351,2.434,2.376,2.434
		c0.409,0,0.85-0.107,1.09-0.273c0.009-0.006,0.02-0.016,0.03-0.025l0.112-0.555c-0.303,0.121-0.684,0.182-1,0.182
		C75.815,47.484,75.148,46.734,75.148,45.625L75.148,45.625z M75.169,45.098c0.104-0.961,0.607-1.436,1.15-1.436h0.011
		c0.624,0,1.046,0.469,1.079,1.074l0,0l0.028,0.338c-0.128,0.008-0.257,0.023-0.385,0.027c0.001,0-1.469,0.008-1.824-0.004
		C75.208,45.098,75.189,45.098,75.169,45.098L75.169,45.098z M69.59,47.295c-0.312,0.119-0.706,0.18-1.032,0.18
		c-0.724,0-1.783-0.379-1.783-1.857c0-1.135,0.702-1.836,1.652-1.836c0.335,0,0.692,0.064,1.07,0.258l0.27-0.475
		c-0.173-0.195-0.67-0.4-1.317-0.4c-1.469,0-2.582,1.059-2.582,2.549c0,1.924,1.393,2.434,2.452,2.434
		c0.421,0,0.875-0.109,1.124-0.273c0.01-0.006,0.021-0.016,0.032-0.025L69.59,47.295L69.59,47.295z M82.557,47.295
		c-0.311,0.119-0.706,0.18-1.032,0.18c-0.724,0-1.782-0.379-1.782-1.857c0-1.135,0.702-1.836,1.652-1.836
		c0.334,0,0.691,0.064,1.069,0.258l0.27-0.475c-0.173-0.195-0.669-0.4-1.318-0.4c-1.468,0-2.582,1.059-2.582,2.549
		c0,1.924,1.394,2.434,2.452,2.434c0.421,0,0.875-0.109,1.123-0.273c0.011-0.006,0.022-0.016,0.032-0.025L82.557,47.295
		L82.557,47.295z M93.872,45.625h0.039c0.694,0,1.487,0.014,2.182-0.008l0.818-0.369c0.021-0.088,0.031-0.227,0.031-0.336
		c-0.019-0.84-0.61-1.73-1.781-1.748c-1.382-0.021-2.125,1.252-2.163,2.459l0,0.012l-0.003,0.088c0,1.924,1.351,2.434,2.376,2.434
		c0.409,0,0.85-0.107,1.09-0.273c0.009-0.006,0.02-0.016,0.03-0.025l0.112-0.555c-0.303,0.121-0.684,0.182-1,0.182
		C94.539,47.484,93.872,46.734,93.872,45.625L93.872,45.625z M93.893,45.098c0.104-0.961,0.607-1.436,1.15-1.436h0.012
		c0.624,0,1.045,0.469,1.079,1.074l0,0l0.028,0.338c-0.128,0.008-0.257,0.023-0.385,0.027c0.002,0-1.468,0.008-1.824-0.004
		C93.932,45.098,93.914,45.098,93.893,45.098L93.893,45.098z M48.379,43.293L47.653,43.5c0.494,1.535,1.006,3.027,1.486,4.57h0.738
		l1.126-3.348l0.977,3.348h0.734l1.678-4.605l-0.727-0.191l-1.273,3.58l-1.065-3.441l-0.687,0.174
		c0.022,0.078,0.049,0.154,0.067,0.234L49.6,47.004l-1.221-3.709V43.293L48.379,43.293z M61.382,35.508h3.179l-0.435,0.803
		l-4.236,0.006l-0.126-0.23l0.326-0.492l2.859-4.525h-2.906l0.426-0.715h3.699v0.629C63.229,32.502,62.136,34,61.382,35.508
		L61.382,35.508z M57.217,31.188l-0.503-0.814l-0.529,0.107l-0.006,0.334v0.023c0,2.16,0.002,2.086,0.002,5.48h1.061v-3.553
		c0.038-0.67,0.406-1.244,0.952-1.52c0.275-0.137,0.579-0.211,0.905-0.205l0.436-0.734c-0.026-0.004-0.15-0.025-0.177-0.027
		C58.535,30.209,57.708,30.555,57.217,31.188L57.217,31.188z M70.092,35.758l-0.375,0.238l0.042-3.592
		c0.015-1.252-0.633-2.211-1.967-2.211c-0.849,0-1.712,0.514-2.184,0.918l0.431,0.525c0.404-0.324,0.916-0.594,1.482-0.594
		c0.809,0,1.213,0.58,1.2,1.268v0.498c-0.162,0.027-0.377,0.068-0.606,0.121c-0.701,0.148-2.668,0.539-2.668,1.996
		c0,0.807,0.606,1.484,1.522,1.484c0.742,0,1.308-0.406,1.752-0.879l0.512,0.797c-0.782,0.553-1.294,1.172-1.294,1.873
		s0.458,1.119,1.119,1.119c0.444,0,0.813-0.148,1.022-0.316l0.143-0.617c-0.222,0.104-0.445,0.18-0.72,0.18
		c-0.445,0-0.606-0.311-0.606-0.607c0-0.309,0.048-0.732,0.709-1.305l0.486-0.443V35.758L70.092,35.758z M66.524,34.723
		c0-0.781,1.105-1.16,2.184-1.348l-0.014,1.199c0,0.242-0.027,0.336-0.081,0.432c-0.215,0.27-0.566,0.619-1.159,0.619
		c-0.5,0-0.93-0.35-0.93-0.889V34.723L66.524,34.723z M128.215,35.508h3.179l-0.435,0.803l-4.236,0.006l-0.126-0.23l0.326-0.492
		l2.859-4.525h-2.906l0.361-0.715H131v0.629C130.062,32.502,128.969,34,128.215,35.508L128.215,35.508z M90.03,35.486
		c-0.233,0.129-0.574,0.211-0.903,0.211c-0.826,0-0.971-0.633-0.971-1.25v-3.324h1.817l0.389-0.672h-2.206l-0.002-1.08l-1.741,1.752
		h0.665v3.615c0,1.025,0.472,1.77,1.632,1.77c0.226,0,0.47-0.037,0.693-0.102c0.111-0.031,0.568-0.205,0.758-0.367L90.03,35.486
		L90.03,35.486z M80.14,35.15l-0.434,0.441c0.787,0.627,1.689,0.926,2.671,0.926c1.523,0,3.438-0.406,3.438-2.508
		c0-3.059-4.776-2.248-4.776-4.635c0-1.041,1.078-1.527,1.875-1.527c0.546,0,1.18,0.168,1.708,0.43l0.466-0.477
		c-0.587-0.379-1.607-0.602-2.176-0.602h-0.012c-1.355,0-3.033,0.717-3.033,2.492c0,2.971,4.727,2.381,4.669,4.658
		c-0.029,1.092-1.375,1.469-2.172,1.469C81.624,35.818,80.821,35.578,80.14,35.15L80.14,35.15z M141.205,36.645l-0.055,0.137h-0.004
		l-0.935,2.328h-0.998c0.4-0.992,0.8-1.984,1.2-2.975l-2.188-5.551l0.907-0.23l1.764,4.637l1.834-4.637l0.906,0.236L141.205,36.645
		L141.205,36.645z M118.636,36.645l-0.055,0.137h-0.003l-0.935,2.328h-0.999c0.4-0.992,0.8-1.984,1.201-2.975l-2.188-5.551
		l0.907-0.23l1.764,4.637l1.834-4.637l0.906,0.236L118.636,36.645L118.636,36.645z M104.247,36.645l-0.055,0.137h-0.004
		l-0.936,2.328h-0.998c0.4-0.992,0.8-1.984,1.2-2.975l-2.188-5.551l0.907-0.23l1.765,4.637l1.833-4.637l0.907,0.236L104.247,36.645
		L104.247,36.645z M137.148,32.143c-0.098-1.107-0.597-1.934-1.91-1.934c-0.707,0-1.389,0.438-1.872,0.918
		c-0.008,0.008-0.029,0.033-0.05,0.059l-0.005-0.008l-0.507-0.807l-0.53,0.105v0.256c0,0.371,0.002,0.846,0.002,1.219v0.037
		l-0.001,0.002c0-0.021,0-0.025,0,0.002l-0.003,0.012c0,0.115,0,0.23,0,0.346v3.967h0.009h1.057h0.014V31.9l0.001-0.023l0.018-0.023
		c0.298-0.379,0.778-0.813,1.492-0.82c0.855-0.008,1.221,0.688,1.222,1.396l0.006,3.887h1.057v-1.787V32.143L137.148,32.143z
		 M95.555,32.406c0.005-1.254-0.634-2.213-1.969-2.213c-0.85,0-1.712,0.514-2.185,0.918l0.432,0.525
		c0.405-0.322,0.917-0.592,1.484-0.592c0.809,0,1.213,0.578,1.199,1.266v0.5c-0.162,0.027-0.377,0.066-0.606,0.121
		c-0.702,0.148-2.67,0.539-2.67,1.996c0,0.809,0.606,1.486,1.524,1.486c0.742,0,1.308-0.406,1.752-0.881l0.517,0.785h0.504
		L95.555,32.406L95.555,32.406z M92.319,34.725c0-0.781,1.105-1.158,2.185-1.348l-0.013,1.199c0,0.244-0.027,0.338-0.081,0.432
		c-0.216,0.271-0.566,0.621-1.16,0.621c-0.499,0-0.931-0.35-0.931-0.891V34.725L92.319,34.725z M114.725,35.389
		c-0.233,0.129-0.573,0.209-0.902,0.209c-0.826,0-0.971-0.631-0.971-1.246v-3.324h1.818l0.388-0.674h-2.206l-0.002-1.08l-1.74,1.754
		h0.664v3.613c0,1.025,0.473,1.77,1.632,1.77c0.226,0,0.47-0.037,0.694-0.102c0.11-0.031,0.567-0.205,0.758-0.367L114.725,35.389
		L114.725,35.389z M100.361,35.486c-0.233,0.129-0.573,0.211-0.902,0.211c-0.826,0-0.97-0.633-0.97-1.25v-3.324h1.817l0.389-0.672
		h-2.206l-0.003-1.08l-1.74,1.752h0.664v3.615c0,1.025,0.473,1.77,1.632,1.77c0.225,0,0.47-0.037,0.693-0.102
		c0.111-0.031,0.568-0.205,0.758-0.367L100.361,35.486L100.361,35.486z M125.892,35.35c-0.389,0.148-0.882,0.223-1.29,0.223
		c-0.903,0-2.225-0.471-2.225-2.318c0-1.416,0.876-2.293,2.063-2.293c0.418,0,0.863,0.08,1.335,0.324l0.336-0.594
		c-0.215-0.242-0.835-0.5-1.645-0.5c-1.833,0-3.223,1.322-3.223,3.184c0,2.4,1.74,3.037,3.062,3.037c0.526,0,1.092-0.137,1.402-0.34
		c0.013-0.01,0.027-0.02,0.04-0.031L125.892,35.35L125.892,35.35z M108.988,30.193c-1.051,0-1.982,0.688-1.982,1.768
		c0,0.715,0.445,1.199,0.971,1.496c0.31,0.176,0.593,0.311,0.943,0.484c0.499,0.244,0.674,0.5,0.674,0.865
		c0,0.457-0.35,0.848-1.051,0.848c-0.513,0-0.984-0.189-1.322-0.404l-0.356,0.59c0.188,0.203,0.458,0.342,0.575,0.389
		c0.277,0.111,0.628,0.184,1.022,0.184c1.065,0,2.144-0.596,2.144-1.861c0-0.5-0.243-0.986-0.836-1.338
		c-0.405-0.229-0.755-0.377-1.16-0.592c-0.323-0.176-0.633-0.418-0.633-0.85c0-0.525,0.417-0.836,0.97-0.836
		c0.324,0,0.688,0.094,1.025,0.27l0.337-0.566c-0.311-0.324-0.877-0.445-1.308-0.445H108.988L108.988,30.193z M48.837,27.199
		l-1.185,0.318l0,5.58c0.186,2.303,1.206,3.453,3.49,3.453c0.068,0,0.138-0.006,0.209-0.006c0.021,0,0.041,0.002,0.06,0.006
		c2.271-0.006,3.288-1.156,3.472-3.439v-5.875l-1.02,0.271v4.736c0,1.783-0.462,3.586-2.514,3.586c-2.051,0-2.513-1.803-2.513-3.586
		C48.837,30.67,48.837,28.775,48.837,27.199L48.837,27.199z M75.028,35.08c-0.323,0.297-0.861,0.484-1.319,0.484
		c-1.01,0-1.898-0.809-1.898-2.209c0-1.844,1.225-2.504,2.167-2.504c0.472,0,0.835,0.107,1.05,0.229V35.08z"/>
	<circle fill-rule="evenodd" clip-rule="evenodd" fill="#001D77" cx="27.673" cy="44.176" r="13.352"/>
	<path fill-rule="evenodd" clip-rule="evenodd" fill="#BED600" d="M41.025,30.824c0,4.133-1.88,7.828-4.831,10.277l2.542-4.402
		c-0.171-0.252-0.351-0.498-0.538-0.738l-3.638,6.303c-0.447,0.27-0.909,0.514-1.388,0.73l4.455-7.715
		c-0.193-0.217-0.394-0.426-0.6-0.629l-5.1,8.832c-0.377,0.127-0.763,0.238-1.155,0.33l5.625-9.742
		c-0.213-0.184-0.432-0.361-0.657-0.533l-6.054,10.488c-0.339,0.051-0.683,0.09-1.03,0.115l6.401-11.088
		c-0.232-0.154-0.468-0.303-0.709-0.441l-6.677,11.564c-0.318,0-0.632-0.012-0.944-0.035l6.885-11.924
		c-0.25-0.125-0.504-0.242-0.762-0.35l-7.033,12.18c-0.295-0.041-0.587-0.092-0.876-0.15l7.121-12.334
		c-0.269-0.094-0.541-0.178-0.817-0.254l-7.149,12.383c-0.275-0.078-0.548-0.164-0.816-0.256l7.12-12.332
		c-0.289-0.061-0.581-0.111-0.876-0.152l-7.033,12.182c-0.258-0.109-0.511-0.227-0.762-0.352l6.885-11.924
		c-0.314-0.023-0.631-0.037-0.945-0.033l-6.676,11.563c-0.242-0.139-0.478-0.287-0.709-0.441l6.4-11.086
		c-0.347,0.025-0.691,0.064-1.03,0.115l-6.052,10.484c-0.225-0.17-0.444-0.348-0.658-0.531l5.624-9.74
		c-0.392,0.094-0.777,0.203-1.155,0.332l-5.097,8.828c-0.207-0.205-0.407-0.414-0.601-0.631l4.45-7.707
		c-0.477,0.217-0.939,0.463-1.385,0.73l-3.635,6.295c-0.188-0.24-0.367-0.486-0.539-0.74l2.537-4.391
		c-1.211,1.006-2.241,2.225-3.035,3.596c-1.137-1.963-1.788-4.244-1.788-6.676c0-7.373,5.979-13.352,13.352-13.352
		C35.046,17.473,41.025,23.451,41.025,30.824z"/>
</g>
</svg>
